<?xml version="1.0" standalone="yes"?>
<svg xmlns="http://www.w3.org/2000/svg" width="225" height="225">
<path style="fill:#fefefd; stroke:none;" d="M0 0L0 225L225 225L225 0L0 0z"/>
<path style="fill:#f6c7a2; stroke:none;" d="M112 2L112 3L126 3L112 2M104 3L104 4L108 4L104 3z"/>
<path style="fill:#e39d63; stroke:none;" d="M108.667 3.33333L109.333 3.66667L108.667 3.33333z"/>
<path style="fill:#ef8e23; stroke:none;" d="M76 19C93.6518 11.6139 108.776 7.95961 128 8L126 6L126 5L128 3C110.364 3.09758 88.1893 4.03751 76 19z"/>
<path style="fill:#f07324; stroke:none;" d="M111 3L112 4L111 3z"/>
<path style="fill:#e39d63; stroke:none;" d="M120 3L121 4L120 3M128.667 3.33333L129.333 3.66667L128.667 3.33333z"/>
<path style="fill:#f6c7a2; stroke:none;" d="M130 3L130 4L133 4L130 3M101 4L102 5L101 4z"/>
<path style="fill:#e39d63; stroke:none;" d="M102.667 4.33333L103.333 4.66667L102.667 4.33333z"/>
<path style="fill:#f07324; stroke:none;" d="M126 5L125 8L125 9C143.337 9.37846 156.792 19.3368 172 28C167.098 18.5508 151.251 6.33475 140 8L141 6L140 6L138 7C137.367 4.46605 130.788 3.40401 126 5z"/>
<path style="fill:#ef8e23; stroke:none;" d="M132.667 4.33333L133.333 4.66667L132.667 4.33333z"/>
<path style="fill:#e39d63; stroke:none;" d="M134.667 4.33333L135.333 4.66667L134.667 4.33333z"/>
<path style="fill:#f6c7a2; stroke:none;" d="M136.667 4.33333L137.333 4.66667L136.667 4.33333M97.6667 5.33333L98.3333 5.66667L97.6667 5.33333z"/>
<path style="fill:#e39d63; stroke:none;" d="M99.6667 5.33333L100.333 5.66667L99.6667 5.33333z"/>
<path style="fill:#f07324; stroke:none;" d="M107 5L108 6L107 5M109.667 5.33333L110.333 5.66667L109.667 5.33333M112 5L113 6L112 5z"/>
<path style="fill:#e39d63; stroke:none;" d="M138.667 5.33333L139.333 5.66667L138.667 5.33333z"/>
<path style="fill:#f6c7a2; stroke:none;" d="M140 5L141 6L140 5M94.6667 6.33333L95.3333 6.66667L94.6667 6.33333z"/>
<path style="fill:#f07324; stroke:none;" d="M120 6L120 7L125 7L120 6z"/>
<path style="fill:#ef8e23; stroke:none;" d="M137.667 6.33333L138.333 6.66667L137.667 6.33333z"/>
<path style="fill:#e39d63; stroke:none;" d="M141 6L142 7L141 6z"/>
<path style="fill:#f6c7a2; stroke:none;" d="M142.667 6.33333L143.333 6.66667L142.667 6.33333M92 7L93 8L92 7z"/>
<path style="fill:#e39d63; stroke:none;" d="M93.6667 7.33333L94.3333 7.66667L93.6667 7.33333z"/>
<path style="fill:#f07324; stroke:none;" d="M119 7L120 8L119 7z"/>
<path style="fill:#ef8e23; stroke:none;" d="M135 7L136 8L135 7M140.667 7.33333L141.333 7.66667L140.667 7.33333z"/>
<path style="fill:#e39d63; stroke:none;" d="M144 7L145 8L144 7z"/>
<path style="fill:#f6c7a2; stroke:none;" d="M145 7L146 8L145 7M89 8L90 9L89 8z"/>
<path style="fill:#e39d63; stroke:none;" d="M90 8L91 9L90 8M109 8L109 9L125 9L109 8M147 8L150 10L150 9L147 8z"/>
<path style="fill:#f6c7a2; stroke:none;" d="M148 8L149 9L148 8z"/>
<path style="fill:#e39d63; stroke:none;" d="M88.6667 9.33333L89.3333 9.66667L88.6667 9.33333M104 9L104 10L107 10L104 9z"/>
<path style="fill:#f6c7a2; stroke:none;" d="M107.667 9.33333L108.333 9.66667L107.667 9.33333M128.667 9.33333L129.333 9.66667L128.667 9.33333z"/>
<path style="fill:#e39d63; stroke:none;" d="M130.667 9.33333L131.333 9.66667L130.667 9.33333z"/>
<path style="fill:#f6c7a2; stroke:none;" d="M150 9L151 10L150 9M82 12L82 13L87 11L82 12z"/>
<path style="fill:#e39d63; stroke:none;" d="M87 10L88 11L87 10M97 10L97 11L100 11L97 10z"/>
<path style="fill:#f6c7a2; stroke:none;" d="M100.667 10.3333L101.333 10.6667L100.667 10.3333M133.667 10.3333L134.333 10.6667L133.667 10.3333z"/>
<path style="fill:#e39d63; stroke:none;" d="M135 10L136 11L135 10z"/>
<path style="fill:#ef8e23; stroke:none;" d="M136 10L137 11L136 10M150 10L151 11L150 10z"/>
<path style="fill:#e39d63; stroke:none;" d="M151 10L152 11L151 10M85 11L86 12L85 11M94.6667 11.3333L95.3333 11.6667L94.6667 11.3333z"/>
<path style="fill:#f6c7a2; stroke:none;" d="M96.6667 11.3333L97.3333 11.6667L96.6667 11.3333M137.667 11.3333L138.333 11.6667L137.667 11.3333z"/>
<path style="fill:#e39d63; stroke:none;" d="M139 11L140 12L139 11z"/>
<path style="fill:#ef8e23; stroke:none;" d="M140 11L141 12L140 11z"/>
<path style="fill:#e39d63; stroke:none;" d="M153 11L154 12L153 11z"/>
<path style="fill:#f6c7a2; stroke:none;" d="M154 11L155 12L154 11z"/>
<path style="fill:#e39d63; stroke:none;" d="M83 12L84 13L83 12M89 13L89 14L93 13L89 13z"/>
<path style="fill:#f6c7a2; stroke:none;" d="M93 12L94 13L93 12M141.667 12.3333L142.333 12.6667L141.667 12.3333z"/>
<path style="fill:#e39d63; stroke:none;" d="M143 12L144 13L143 12z"/>
<path style="fill:#ef8e23; stroke:none;" d="M147 12L148 13L147 12z"/>
<path style="fill:#f6c7a2; stroke:none;" d="M155 12L156 13L155 12M80 13L78 16L80 13z"/>
<path style="fill:#e39d63; stroke:none;" d="M81 13L82 14L81 13z"/>
<path style="fill:#f6c7a2; stroke:none;" d="M90 13L91 14L90 13M145 13L146 14L145 13z"/>
<path style="fill:#e39d63; stroke:none;" d="M146 13L147 14L146 13M156 13L157 14L156 13z"/>
<path style="fill:#f6c7a2; stroke:none;" d="M157 13L158 14L157 13z"/>
<path style="fill:#e39d63; stroke:none;" d="M80 14L81 15L80 14M83 15L83 16L87 15L83 15z"/>
<path style="fill:#f6c7a2; stroke:none;" d="M87 14L88 15L87 14M147 14L148 15L147 14z"/>
<path style="fill:#e39d63; stroke:none;" d="M148 14L149 15L148 14z"/>
<path style="fill:#ef8e23; stroke:none;" d="M155 14L156 15L155 14z"/>
<path style="fill:#e39d63; stroke:none;" d="M158 14L159 15L158 14M79 15L80 16L79 15z"/>
<path style="fill:#f6c7a2; stroke:none;" d="M84 15L85 16L84 15M150 15L151 16L150 15z"/>
<path style="fill:#ef8e23; stroke:none;" d="M151 15L152 16L151 15z"/>
<path style="fill:#f6c7a2; stroke:none;" d="M76 16L73 20L76 16z"/>
<path style="fill:#e39d63; stroke:none;" d="M77 16L78 17L77 16M81 16L82 17L81 16z"/>
<path style="fill:#f6c7a2; stroke:none;" d="M82.6667 16.3333L83.3333 16.6667L82.6667 16.3333M152 16L153 17L152 16z"/>
<path style="fill:#e39d63; stroke:none;" d="M153 16L154 17L153 16z"/>
<path style="fill:#f6c7a2; stroke:none;" d="M161 16L162 17L161 16z"/>
<path style="fill:#e39d63; stroke:none;" d="M76 17L77 18L76 17M79 17L80 18L79 17z"/>
<path style="fill:#f6c7a2; stroke:none;" d="M80 17L81 18L80 17M154 17L155 18L154 17z"/>
<path style="fill:#e39d63; stroke:none;" d="M155 17L156 18L155 17M162 17L163 18L162 17M75 18L72 22L75 18M77 18L78 19L77 18z"/>
<path style="fill:#f6c7a2; stroke:none;" d="M78 18L79 19L78 18M156 18L157 19L156 18M76.6667 19.3333L77.3333 19.6667L76.6667 19.3333M158 19L159 20L158 19M165 19L166 20L165 19M75 20L76 21L75 20z"/>
<path style="fill:#e39d63; stroke:none;" d="M160 20L161 21L160 20z"/>
<path style="fill:#f6c7a2; stroke:none;" d="M166 20L167 21L166 20M69 24L72 21L69 24M73 21L74 22L73 21M161 21L162 22L161 21z"/>
<path style="fill:#e39d63; stroke:none;" d="M162 21L163 22L162 21z"/>
<path style="fill:#f6c7a2; stroke:none;" d="M167 21L168 22L167 21M163 22L164 23L163 22M168 22L169 23L168 22M164 23L165 24L164 23z"/>
<path style="fill:#e39d63; stroke:none;" d="M165 23L166 24L165 23z"/>
<path style="fill:#f6c7a2; stroke:none;" d="M169 23L170 24L169 23z"/>
<path style="fill:#e39d63; stroke:none;" d="M166 24L167 25L166 24z"/>
<path style="fill:#f6c7a2; stroke:none;" d="M167 25L168 26L167 25M171 25L172 26L171 25M168.667 26.3333L169.333 26.6667L168.667 26.3333z"/>
<path style="fill:#e39d63; stroke:none;" d="M171 26L172 27L171 26z"/>
<path style="fill:#f6c7a2; stroke:none;" d="M170 27L171 28L170 27z"/>
<path style="fill:#e39d63; stroke:none;" d="M172 27L174 30L172 27z"/>
<path style="fill:#f6c7a2; stroke:none;" d="M173 28L174 29L173 28z"/>
<path style="fill:#e39d63; stroke:none;" d="M174 30L175 31L174 30z"/>
<path style="fill:#f6c7a2; stroke:none;" d="M112 35L112 36L122 36L112 35M104 36L105 37L104 36z"/>
<path style="fill:#e39d63; stroke:none;" d="M105 36L105 37L108 37L105 36z"/>
<path style="fill:#f07324; stroke:none;" d="M95 39L95 42L100 43L100 44L92 41L82 44L83 46L80 45L76 48L76 49L93 44L99 64L99 65C93.566 67.9983 95.2881 74.5656 95 80C98.2753 83.2753 97 89.5138 97 94L97 131C97 136.003 94.6074 144.094 99 147L95 151L99 151L100 156L95 155L97 159L96 176L101 176L101 177L97 177L97 178L100 178L100 179L94 178L94 179L95 181L104 182C104.743 186.55 118.146 185.191 122 184.94C140.471 183.735 158.157 175.257 170.981 162C202.158 129.772 196.041 72.4041 158 48.2176C137.097 34.9271 118.163 36.2637 95 39z"/>
<path style="fill:#ef8e23; stroke:none;" d="M124 36L124 37L127 37L124 36z"/>
<path style="fill:#e39d63; stroke:none;" d="M127 36L128 37L127 36z"/>
<path style="fill:#f6c7a2; stroke:none;" d="M128.667 36.3333L129.333 36.6667L128.667 36.3333M99.6667 37.3333L100.333 37.6667L99.6667 37.3333z"/>
<path style="fill:#e39d63; stroke:none;" d="M101 37L101 38L104 38L101 37z"/>
<path style="fill:#ef8e23; stroke:none;" d="M104 37L105 38L104 37z"/>
<path style="fill:#e39d63; stroke:none;" d="M132 37L133 38L132 37z"/>
<path style="fill:#f6c7a2; stroke:none;" d="M133.667 37.3333L134.333 37.6667L133.667 37.3333M94.6667 38.3333L95.3333 38.6667L94.6667 38.3333z"/>
<path style="fill:#e39d63; stroke:none;" d="M96 38L97 39L96 38z"/>
<path style="fill:#ef8e23; stroke:none;" d="M97.6667 38.3333L98.3333 38.6667L97.6667 38.3333M103 38L104 39L103 38z"/>
<path style="fill:#e39d63; stroke:none;" d="M136 38L137 39L136 38z"/>
<path style="fill:#f6c7a2; stroke:none;" d="M137.667 38.3333L138.333 38.6667L137.667 38.3333M92 39L93 40L92 39z"/>
<path style="fill:#e39d63; stroke:none;" d="M93 39L94 40L93 39z"/>
<path style="fill:#ef8e23; stroke:none;" d="M94 39L91 40C93.3128 43.9248 95.6051 44.3157 100 44L100 43L94 39M111 39L112 40L111 39z"/>
<path style="fill:#e39d63; stroke:none;" d="M139 39L140 40L139 39z"/>
<path style="fill:#f6c7a2; stroke:none;" d="M140.667 39.3333L141.333 39.6667L140.667 39.3333M89 40L90 41L89 40z"/>
<path style="fill:#e39d63; stroke:none;" d="M90 40L91 41L90 40z"/>
<path style="fill:#ef8e23; stroke:none;" d="M142 40L143 41L142 40z"/>
<path style="fill:#f6c7a2; stroke:none;" d="M143 40L144 41L143 40M86 41L87 42L86 41z"/>
<path style="fill:#e39d63; stroke:none;" d="M87.6667 41.3333L88.3333 41.6667L87.6667 41.3333z"/>
<path style="fill:#ef8e23; stroke:none;" d="M89 41L90 42L89 41z"/>
<path style="fill:#e39d63; stroke:none;" d="M145 41L146 42L145 41z"/>
<path style="fill:#f6c7a2; stroke:none;" d="M146 41L147 42L146 41M84 42L85 43L84 42z"/>
<path style="fill:#e39d63; stroke:none;" d="M85 42L86 43L85 42z"/>
<path style="fill:#ef8e23; stroke:none;" d="M84 45L88 43L84 45z"/>
<path style="fill:#e39d63; stroke:none;" d="M147 42L148 43L147 42z"/>
<path style="fill:#f6c7a2; stroke:none;" d="M148 42L149 43L148 42M82 43L83 44L82 43z"/>
<path style="fill:#e39d63; stroke:none;" d="M83 43L84 44L83 43z"/>
<path style="fill:#ef8e23; stroke:none;" d="M88 43L87 45L88 43z"/>
<path style="fill:#e39d63; stroke:none;" d="M149 43L150 44L149 43z"/>
<path style="fill:#f6c7a2; stroke:none;" d="M150 43L151 44L150 43M80 44L81 45L80 44z"/>
<path style="fill:#e39d63; stroke:none;" d="M81 44L82 45L81 44z"/>
<path style="fill:#ef8e23; stroke:none;" d="M76 48L75 48L73 52C65.6015 53.2625 59.4266 62.1344 55.294 68C42.936 85.5402 39.3622 108.324 44.5139 129C46.2218 135.855 50.7626 142.279 52 149L57 153C59.0622 166.71 83.6189 179.422 96 182L94 179L94 178L100 179L100 178L97 178L97 177L101 177L101 176L96 176L97 159L95 155L100 156L99 151L95 151L99 147L96 146L97 97L95 80C95.977 74.3151 94.1577 69.2057 99 65L99 64L96 64L93 44L76 48M150 44L151 45L150 44z"/>
<path style="fill:#e39d63; stroke:none;" d="M151 44L152 45L151 44z"/>
<path style="fill:#f6c7a2; stroke:none;" d="M152 44L153 45L152 44M75 47L75 48L80 46L75 47z"/>
<path style="fill:#ef8e23; stroke:none;" d="M81.6667 45.3333L82.3333 45.6667L81.6667 45.3333z"/>
<path style="fill:#f6c7a2; stroke:none;" d="M153 45L154 46L153 45z"/>
<path style="fill:#e39d63; stroke:none;" d="M78 46L76 47L76 48L78 46z"/>
<path style="fill:#ef8e23; stroke:none;" d="M77 49L81 46L77 49z"/>
<path style="fill:#f6c7a2; stroke:none;" d="M155 46L156 47L155 46z"/>
<path style="fill:#e39d63; stroke:none;" d="M156 47L157 48L156 47z"/>
<path style="fill:#f6c7a2; stroke:none;" d="M157 47L158 48L157 47M74 48L75 49L74 48z"/>
<path style="fill:#f07324; stroke:none;" d="M92.6667 48.3333L93.3333 48.6667L92.6667 48.3333z"/>
<path style="fill:#e39d63; stroke:none;" d="M158 48L159 49L158 48z"/>
<path style="fill:#f6c7a2; stroke:none;" d="M72 49L71 51L72 49z"/>
<path style="fill:#e39d63; stroke:none;" d="M73 49L74 50L73 49z"/>
<path style="fill:#f6c7a2; stroke:none;" d="M160 49L161 50L160 49z"/>
<path style="fill:#e39d63; stroke:none;" d="M72 50L73 51L72 50z"/>
<path style="fill:#f07324; stroke:none;" d="M74 50L75 51L74 50z"/>
<path style="fill:#f6c7a2; stroke:none;" d="M161 50L162 51L161 50M70 51L71 52L70 51z"/>
<path style="fill:#f07324; stroke:none;" d="M72 51L73 52L72 51M79 51L80 52L79 51z"/>
<path style="fill:#e39d63; stroke:none;" d="M162 51L163 52L162 51z"/>
<path style="fill:#f6c7a2; stroke:none;" d="M68 52L65 56L68 52z"/>
<path style="fill:#e39d63; stroke:none;" d="M69 52L70 53L69 52z"/>
<path style="fill:#ef8e23; stroke:none;" d="M163 52L164 53L163 52z"/>
<path style="fill:#e39d63; stroke:none;" d="M68 53L69 54L68 53z"/>
<path style="fill:#ef8e23; stroke:none;" d="M164 53L165 54L164 53z"/>
<path style="fill:#f6c7a2; stroke:none;" d="M165 53L166 54L165 53z"/>
<path style="fill:#e39d63; stroke:none;" d="M67 54L68 55L67 54z"/>
<path style="fill:#f07324; stroke:none;" d="M76 54L77 55L76 54z"/>
<path style="fill:#f6c7a2; stroke:none;" d="M166 54L167 55L166 54z"/>
<path style="fill:#e39d63; stroke:none;" d="M66 55L67 56L66 55z"/>
<path style="fill:#f07324; stroke:none;" d="M79 55L80 56L79 55z"/>
<path style="fill:#f6c7a2; stroke:none;" d="M167 55L168 56L167 55z"/>
<path style="fill:#e39d63; stroke:none;" d="M63 59L66 56L63 59z"/>
<path style="fill:#f6c7a2; stroke:none;" d="M168 56L169 57L168 56M63 57L64 58L63 57z"/>
<path style="fill:#f07324; stroke:none;" d="M78 57L78 60L80 60L80 57L78 57z"/>
<path style="fill:#f6c7a2; stroke:none;" d="M169 57L170 58L169 57M62 58L63 59L62 58M170 58L171 59L170 58M61 59L62 60L61 59M171 59L172 60L171 59M60 60L61 61L60 60M172 60L173 61L172 60M57 62L58 63L57 62z"/>
<path style="fill:#e39d63; stroke:none;" d="M59 62L60 63L59 62M58 63L59 64L58 63M57 64L58 65L57 64z"/>
<path style="fill:#ef8e23; stroke:none;" d="M103 64L106 66L106 65L103 64M133 64L134 65L133 64z"/>
<path style="fill:#f6c7a2; stroke:none;" d="M56 65L55 67L56 65z"/>
<path style="fill:#ef8e23; stroke:none;" d="M109 65L110 66L109 65z"/>
<path style="fill:#e39d63; stroke:none;" d="M110 65L110 66L120 66L110 65z"/>
<path style="fill:#ef8e23; stroke:none;" d="M120.667 65.3333L121.333 65.6667L120.667 65.3333z"/>
<path style="fill:#e39d63; stroke:none;" d="M176 65L177 66L176 65M56 66L57 67L56 66z"/>
<path style="fill:#ef8e23; stroke:none;" d="M98 66L98 69L99 69L98 66z"/>
<path style="fill:#e39d63; stroke:none;" d="M103 66L103 67L106 67L103 66z"/>
<path style="fill:#f6c7a2; stroke:none;" d="M106 66L107 67L106 66z"/>
<path style="fill:#fefefd; stroke:none;" d="M103 154C115.903 155.631 127.543 155.514 139 148.536C162.982 133.931 166.145 100.331 147.816 80.0147C139.75 71.075 127.936 66.0537 116 66.0008C112.455 65.985 106.418 65.1684 104.028 68.5139C100.586 73.3308 103 86.2258 103 92L103 154z"/>
<path style="fill:#f6c7a2; stroke:none;" d="M123.667 66.3333L124.333 66.6667L123.667 66.3333z"/>
<path style="fill:#e39d63; stroke:none;" d="M125.667 66.3333L126.333 66.6667L125.667 66.3333z"/>
<path style="fill:#f6c7a2; stroke:none;" d="M177 66L178 67L177 66z"/>
<path style="fill:#e39d63; stroke:none;" d="M55 67L56 68L55 67z"/>
<path style="fill:#f6c7a2; stroke:none;" d="M102 67L102 154L103 154L103 98L104 67L102 67z"/>
<path style="fill:#e39d63; stroke:none;" d="M128.667 67.3333L129.333 67.6667L128.667 67.3333M177 67L178 68L177 67z"/>
<path style="fill:#f6c7a2; stroke:none;" d="M54 68L52 72L53 72L54 68M130 68L131 69L130 68z"/>
<path style="fill:#e39d63; stroke:none;" d="M131 68L132 69L131 68M178 68L179 69L178 68M54 69L55 70L54 69z"/>
<path style="fill:#ef8e23; stroke:none;" d="M96 69L97 70L96 69z"/>
<path style="fill:#f6c7a2; stroke:none;" d="M132.667 69.3333L133.333 69.6667L132.667 69.3333z"/>
<path style="fill:#ef8e23; stroke:none;" d="M134 69L135 70L134 69z"/>
<path style="fill:#f6c7a2; stroke:none;" d="M179 69L180 70L179 69z"/>
<path style="fill:#e39d63; stroke:none;" d="M53 70L54 71L53 70z"/>
<path style="fill:#ef8e23; stroke:none;" d="M100 70L101 71L100 70z"/>
<path style="fill:#f6c7a2; stroke:none;" d="M135 70L136 71L135 70z"/>
<path style="fill:#e39d63; stroke:none;" d="M179 70L180 71L179 70z"/>
<path style="fill:#f07324; stroke:none;" d="M62 71L63 72L62 71z"/>
<path style="fill:#ef8e23; stroke:none;" d="M96 71L96 72L99 72L96 71z"/>
<path style="fill:#f6c7a2; stroke:none;" d="M137 71L138 72L137 71M180 71L181 72L180 71z"/>
<path style="fill:#ef8e23; stroke:none;" d="M101 72L101 152L102 152L102 97L101 72z"/>
<path style="fill:#f6c7a2; stroke:none;" d="M138 72L139 73L138 72z"/>
<path style="fill:#e39d63; stroke:none;" d="M139 72L140 73L139 72M51 73L52 74L51 73z"/>
<path style="fill:#f6c7a2; stroke:none;" d="M140 73L141 74L140 73z"/>
<path style="fill:#e39d63; stroke:none;" d="M181 73L182 74L181 73z"/>
<path style="fill:#f6c7a2; stroke:none;" d="M50 74L51 75L50 74M141 74L142 75L141 74z"/>
<path style="fill:#e39d63; stroke:none;" d="M142 74L143 75L142 74z"/>
<path style="fill:#f6c7a2; stroke:none;" d="M182 74L183 75L182 74z"/>
<path style="fill:#e39d63; stroke:none;" d="M50 75L51 76L50 75M54.3333 75.6667L54.6667 76.3333L54.3333 75.6667z"/>
<path style="fill:#f6c7a2; stroke:none;" d="M143 75L144 76L143 75z"/>
<path style="fill:#e39d63; stroke:none;" d="M182 75L183 76L182 75z"/>
<path style="fill:#f6c7a2; stroke:none;" d="M49 76L50 77L49 76M144 76L145 77L144 76M183 76L184 77L183 76z"/>
<path style="fill:#e39d63; stroke:none;" d="M49 77L50 78L49 77z"/>
<path style="fill:#f6c7a2; stroke:none;" d="M145 77L147 79L145 77z"/>
<path style="fill:#ef8e23; stroke:none;" d="M146 77L147 78L146 77z"/>
<path style="fill:#e39d63; stroke:none;" d="M183 77L184 78L183 77z"/>
<path style="fill:#f6c7a2; stroke:none;" d="M48 78L49 79L48 78z"/>
<path style="fill:#e39d63; stroke:none;" d="M50 78L51 79L50 78z"/>
<path style="fill:#f6c7a2; stroke:none;" d="M184 78L185 79L184 78z"/>
<path style="fill:#e39d63; stroke:none;" d="M48.3333 79.6667L48.6667 80.3333L48.3333 79.6667z"/>
<path style="fill:#f07324; stroke:none;" d="M54 79L55 80L54 79z"/>
<path style="fill:#ef8e23; stroke:none;" d="M98 79L98 143L99 143L99 99L98 79z"/>
<path style="fill:#f6c7a2; stroke:none;" d="M147 79L148 80L147 79z"/>
<path style="fill:#e39d63; stroke:none;" d="M184 79L185 80L184 79z"/>
<path style="fill:#f6c7a2; stroke:none;" d="M47.3333 80.6667L47.6667 81.3333L47.3333 80.6667M148 80L149 81L148 80M185 80L186 81L185 80z"/>
<path style="fill:#e39d63; stroke:none;" d="M149 81L150 82L149 81M185 81L186 82L185 81M47 82L46 85L47 82M150 82L152 84L150 82z"/>
<path style="fill:#f6c7a2; stroke:none;" d="M186.333 82.6667L186.667 83.3333L186.333 82.6667M46 83L47 84L46 83M150 83L151 84L150 83M151 84L152 85L151 84z"/>
<path style="fill:#e39d63; stroke:none;" d="M186 84L187 85L186 84z"/>
<path style="fill:#f6c7a2; stroke:none;" d="M45.3333 85.6667L45.6667 86.3333L45.3333 85.6667z"/>
<path style="fill:#e39d63; stroke:none;" d="M152 85L154 87L152 85z"/>
<path style="fill:#f6c7a2; stroke:none;" d="M187 85L188 86L187 85M152 86L153 87L152 86z"/>
<path style="fill:#e39d63; stroke:none;" d="M187 86L188 87L187 86M45.3333 87.6667L45.6667 88.3333L45.3333 87.6667z"/>
<path style="fill:#f6c7a2; stroke:none;" d="M153 87L154 88L153 87M44.3333 88.6667L44.6667 89.3333L44.3333 88.6667z"/>
<path style="fill:#e39d63; stroke:none;" d="M154 88L155 89L154 88z"/>
<path style="fill:#f6c7a2; stroke:none;" d="M188.333 88.6667L188.667 89.3333L188.333 88.6667M154 89L155 90L154 89z"/>
<path style="fill:#e39d63; stroke:none;" d="M44.3333 90.6667L44.6667 91.3333L44.3333 90.6667M155 90L156 91L155 90M188 90L189 91L188 90z"/>
<path style="fill:#f6c7a2; stroke:none;" d="M155 91L156 92L155 91M43.3333 92.6667L43.6667 93.3333L43.3333 92.6667z"/>
<path style="fill:#e39d63; stroke:none;" d="M156 92L157 93L156 92z"/>
<path style="fill:#f6c7a2; stroke:none;" d="M189 92L190 93L189 92z"/>
<path style="fill:#e39d63; stroke:none;" d="M44 93L43 96L44 93z"/>
<path style="fill:#f6c7a2; stroke:none;" d="M156 93L157 94L156 93z"/>
<path style="fill:#e39d63; stroke:none;" d="M189 93L190 94L189 93M157 94L158 95L157 94z"/>
<path style="fill:#ef8e23; stroke:none;" d="M189 94L190 95L189 94z"/>
<path style="fill:#f6c7a2; stroke:none;" d="M157 95L158 96L157 95M42 96L42 99L43 99L42 96M190 96L190 99L191 99L190 96z"/>
<path style="fill:#e39d63; stroke:none;" d="M158 97L159 98L158 97z"/>
<path style="fill:#f6c7a2; stroke:none;" d="M158.333 98.6667L158.667 99.3333L158.333 98.6667z"/>
<path style="fill:#e39d63; stroke:none;" d="M42 99L42 102L43 102L42 99M190.333 99.6667L190.667 100.333L190.333 99.6667M159.333 101.667L159.667 102.333L159.333 101.667z"/>
<path style="fill:#f07324; stroke:none;" d="M42 103L43 104L42 103z"/>
<path style="fill:#f6c7a2; stroke:none;" d="M159 103L160 104L159 103M41 104L41 116L42 116L41 104M191 104L191 117L192 117L191 104M159.333 116.667L159.667 117.333L159.333 116.667z"/>
<path style="fill:#e39d63; stroke:none;" d="M42 117L42 122L43 122L42 117M159.333 118.667L159.667 119.333L159.333 118.667z"/>
<path style="fill:#f6c7a2; stroke:none;" d="M158.333 121.667L158.667 122.333L158.333 121.667z"/>
<path style="fill:#e39d63; stroke:none;" d="M190 121L191 122L190 121z"/>
<path style="fill:#f6c7a2; stroke:none;" d="M42.3333 122.667L42.6667 123.333L42.3333 122.667M190.333 122.667L190.667 123.333L190.333 122.667z"/>
<path style="fill:#e39d63; stroke:none;" d="M43 123L43 127L44 127L43 123M158 123L159 124L158 123z"/>
<path style="fill:#f6c7a2; stroke:none;" d="M157.333 124.667L157.667 125.333L157.333 124.667z"/>
<path style="fill:#e39d63; stroke:none;" d="M157 126L158 127L157 126z"/>
<path style="fill:#ef8e23; stroke:none;" d="M189 126L190 127L189 126z"/>
<path style="fill:#f6c7a2; stroke:none;" d="M43.3333 127.667L43.6667 128.333L43.3333 127.667z"/>
<path style="fill:#e39d63; stroke:none;" d="M189 127L190 128L189 127M156.333 128.667L156.667 129.333L156.333 128.667z"/>
<path style="fill:#f6c7a2; stroke:none;" d="M189 128L190 129L189 128z"/>
<path style="fill:#e39d63; stroke:none;" d="M44.3333 129.667L44.6667 130.333L44.3333 129.667z"/>
<path style="fill:#f6c7a2; stroke:none;" d="M155 130L156 131L155 130z"/>
<path style="fill:#e39d63; stroke:none;" d="M188 130L189 131L188 130z"/>
<path style="fill:#f6c7a2; stroke:none;" d="M44.3333 131.667L44.6667 132.333L44.3333 131.667M154 131L155 132L154 131M188.333 131.667L188.667 132.333L188.333 131.667z"/>
<path style="fill:#e39d63; stroke:none;" d="M45 132L46 137L47 137L45 132M154 132L155 133L154 132z"/>
<path style="fill:#f6c7a2; stroke:none;" d="M153 133L152 136L153 136L153 133M45.3333 134.667L45.6667 135.333L45.3333 134.667z"/>
<path style="fill:#e39d63; stroke:none;" d="M153 134L154 135L153 134M187 134L188 135L187 134z"/>
<path style="fill:#f6c7a2; stroke:none;" d="M187 135L188 136L187 135z"/>
<path style="fill:#e39d63; stroke:none;" d="M186 136L187 137L186 136z"/>
<path style="fill:#f6c7a2; stroke:none;" d="M46 137L47 138L46 137z"/>
<path style="fill:#e39d63; stroke:none;" d="M151 137L152 138L151 137z"/>
<path style="fill:#f6c7a2; stroke:none;" d="M186 137L187 138L186 137z"/>
<path style="fill:#e39d63; stroke:none;" d="M47.3333 138.667L47.6667 139.333L47.3333 138.667M150 138L151 139L150 138z"/>
<path style="fill:#f6c7a2; stroke:none;" d="M149 139L150 140L149 139z"/>
<path style="fill:#e39d63; stroke:none;" d="M185 139L186 140L185 139z"/>
<path style="fill:#f6c7a2; stroke:none;" d="M47 140L48 141L47 140M148 140L149 141L148 140M185 140L186 141L185 140z"/>
<path style="fill:#e39d63; stroke:none;" d="M48 141L49 142L48 141M184 141L185 142L184 141z"/>
<path style="fill:#f6c7a2; stroke:none;" d="M48 142L49 143L48 142M184 142L185 143L184 142z"/>
<path style="fill:#e39d63; stroke:none;" d="M49 143L53 148L49 143z"/>
<path style="fill:#f6c7a2; stroke:none;" d="M49 144L50 145L49 144M144 144L145 145L144 144z"/>
<path style="fill:#ef8e23; stroke:none;" d="M145 144L146 145L145 144z"/>
<path style="fill:#f6c7a2; stroke:none;" d="M183 144L184 145L183 144M143 145L144 146L143 145z"/>
<path style="fill:#e39d63; stroke:none;" d="M182 145L183 146L182 145z"/>
<path style="fill:#f6c7a2; stroke:none;" d="M50 146L51 147L50 146z"/>
<path style="fill:#e39d63; stroke:none;" d="M142 146L143 147L142 146z"/>
<path style="fill:#f6c7a2; stroke:none;" d="M182 146L183 147L182 146M140 147L141 148L140 147z"/>
<path style="fill:#e39d63; stroke:none;" d="M181 147L182 148L181 147M139 148L140 149L139 148z"/>
<path style="fill:#f6c7a2; stroke:none;" d="M181 148L182 149L181 148z"/>
<path style="fill:#e39d63; stroke:none;" d="M52 149L54 151L54 149L52 149z"/>
<path style="fill:#f6c7a2; stroke:none;" d="M137 149L138 150L137 149M180 149L181 150L180 149M135 150L136 151L135 150z"/>
<path style="fill:#e39d63; stroke:none;" d="M136 150L137 151L136 150z"/>
<path style="fill:#f6c7a2; stroke:none;" d="M53 151L54 152L53 151M133 151L134 152L133 151z"/>
<path style="fill:#e39d63; stroke:none;" d="M134 151L135 152L134 151z"/>
<path style="fill:#f6c7a2; stroke:none;" d="M179 151L180 152L179 151M54 152L56 155L54 152z"/>
<path style="fill:#f07324; stroke:none;" d="M55 152L57 154L55 152z"/>
<path style="fill:#f6c7a2; stroke:none;" d="M131 152L132 153L131 152z"/>
<path style="fill:#ef8e23; stroke:none;" d="M132 152L133 153L132 152z"/>
<path style="fill:#e39d63; stroke:none;" d="M178 152L177 154L178 152M55 153L56 154L55 153z"/>
<path style="fill:#f07324; stroke:none;" d="M96.6667 153.333L97.3333 153.667L96.6667 153.333z"/>
<path style="fill:#ef8e23; stroke:none;" d="M101 153L102 154L101 153z"/>
<path style="fill:#f6c7a2; stroke:none;" d="M128 153L129 154L128 153z"/>
<path style="fill:#e39d63; stroke:none;" d="M129 153L130 154L129 153z"/>
<path style="fill:#f6c7a2; stroke:none;" d="M178 153L179 154L178 153z"/>
<path style="fill:#e39d63; stroke:none;" d="M60 154L61 155L60 154z"/>
<path style="fill:#ef8e23; stroke:none;" d="M102 154L103 155L102 154z"/>
<path style="fill:#e39d63; stroke:none;" d="M103.667 154.333L104.333 154.667L103.667 154.333z"/>
<path style="fill:#f6c7a2; stroke:none;" d="M105.667 154.333L106.333 154.667L105.667 154.333M124 154L125 155L124 154z"/>
<path style="fill:#e39d63; stroke:none;" d="M125 154L126 155L125 154z"/>
<path style="fill:#ef8e23; stroke:none;" d="M126 154L127 155L126 154z"/>
<path style="fill:#f6c7a2; stroke:none;" d="M177 154L178 155L177 154M56 155L57 156L56 155z"/>
<path style="fill:#ef8e23; stroke:none;" d="M104.667 155.333L105.333 155.667L104.667 155.333M107 155L112 157L112 156L107 155z"/>
<path style="fill:#e39d63; stroke:none;" d="M108 155L108 156L111 156L108 155z"/>
<path style="fill:#f6c7a2; stroke:none;" d="M111 155L111 156L120 156L111 155z"/>
<path style="fill:#e39d63; stroke:none;" d="M120.667 155.333L121.333 155.667L120.667 155.333M176 155L177 156L176 155M57 156L58 157L57 156z"/>
<path style="fill:#ef8e23; stroke:none;" d="M102.667 156.333L103.333 156.667L102.667 156.333z"/>
<path style="fill:#e39d63; stroke:none;" d="M175 156L176 157L175 156M58 157L60 159L58 157z"/>
<path style="fill:#ef8e23; stroke:none;" d="M98 157L103 160L98 157z"/>
<path style="fill:#f6c7a2; stroke:none;" d="M175 157L176 158L175 157M58 158L59 159L58 158z"/>
<path style="fill:#ef8e23; stroke:none;" d="M120 158L121 159L120 158z"/>
<path style="fill:#f6c7a2; stroke:none;" d="M174 158L175 159L174 158M59 159L60 160L59 159M173 159L174 160L173 159M60 160L61 161L60 160z"/>
<path style="fill:#f07324; stroke:none;" d="M74 160L74 161L77 161L74 160z"/>
<path style="fill:#f6c7a2; stroke:none;" d="M172 160L173 161L172 160M61 161L64 164L61 161z"/>
<path style="fill:#e39d63; stroke:none;" d="M62 161L63 162L62 161M171 161L172 162L171 161z"/>
<path style="fill:#f07324; stroke:none;" d="M64 162L65 163L64 162M79 162L80 165L79 162z"/>
<path style="fill:#e39d63; stroke:none;" d="M170 162L171 163L170 162M169 163L170 164L169 163z"/>
<path style="fill:#f6c7a2; stroke:none;" d="M64 164L65 165L64 164z"/>
<path style="fill:#f07324; stroke:none;" d="M70 164L71 165L70 164z"/>
<path style="fill:#f6c7a2; stroke:none;" d="M168 164L169 165L168 164M65 165L66 166L65 165z"/>
<path style="fill:#e39d63; stroke:none;" d="M167 165L168 166L167 165z"/>
<path style="fill:#f6c7a2; stroke:none;" d="M66 166L70 170L66 166z"/>
<path style="fill:#e39d63; stroke:none;" d="M67 166L68 167L67 166z"/>
<path style="fill:#f07324; stroke:none;" d="M73 167L76 169L75 166L73 167z"/>
<path style="fill:#f6c7a2; stroke:none;" d="M166 166L167 167L166 166z"/>
<path style="fill:#e39d63; stroke:none;" d="M68 167L69 168L68 167z"/>
<path style="fill:#f6c7a2; stroke:none;" d="M165 167L166 168L165 167z"/>
<path style="fill:#e39d63; stroke:none;" d="M69 168L71 170L69 168z"/>
<path style="fill:#f07324; stroke:none;" d="M70 168L71 169L70 168z"/>
<path style="fill:#e39d63; stroke:none;" d="M163 168L162 170L163 168z"/>
<path style="fill:#f6c7a2; stroke:none;" d="M164 168L165 169L164 168z"/>
<path style="fill:#f07324; stroke:none;" d="M71 169L73 171L71 169M73 169L74 170L73 169M79 169L79 174L80 174L79 169z"/>
<path style="fill:#f6c7a2; stroke:none;" d="M163 169L164 170L163 169M71 170L72 171L71 170z"/>
<path style="fill:#f07324; stroke:none;" d="M75 170L76 171L75 170z"/>
<path style="fill:#e39d63; stroke:none;" d="M161 170L162 171L161 170z"/>
<path style="fill:#f6c7a2; stroke:none;" d="M72 171L73 172L72 171z"/>
<path style="fill:#e39d63; stroke:none;" d="M73 171L75 173L73 171z"/>
<path style="fill:#f07324; stroke:none;" d="M74 171L75 172L74 171z"/>
<path style="fill:#f6c7a2; stroke:none;" d="M160 171L161 172L160 171z"/>
<path style="fill:#ef8e23; stroke:none;" d="M155 172L156 173L155 172z"/>
<path style="fill:#e39d63; stroke:none;" d="M158 172L159 173L158 172z"/>
<path style="fill:#f6c7a2; stroke:none;" d="M75 173L76 174L75 173z"/>
<path style="fill:#e39d63; stroke:none;" d="M156 173L155 175L156 173z"/>
<path style="fill:#f6c7a2; stroke:none;" d="M157 173L158 174L157 173z"/>
<path style="fill:#e39d63; stroke:none;" d="M77 174L78 175L77 174z"/>
<path style="fill:#f6c7a2; stroke:none;" d="M156 174L157 175L156 174M78 175L79 176L78 175z"/>
<path style="fill:#e39d63; stroke:none;" d="M79 175L80 176L79 175M153 175L154 176L153 175z"/>
<path style="fill:#f6c7a2; stroke:none;" d="M154 175L155 176L154 175M80 176L81 177L80 176z"/>
<path style="fill:#e39d63; stroke:none;" d="M81 176L82 177L81 176z"/>
<path style="fill:#f07324; stroke:none;" d="M86 176L86 177L93 178L86 176z"/>
<path style="fill:#f6c7a2; stroke:none;" d="M82 177L83 178L82 177z"/>
<path style="fill:#e39d63; stroke:none;" d="M83 177L84 178L83 177z"/>
<path style="fill:#f07324; stroke:none;" d="M84.6667 177.333L85.3333 177.667L84.6667 177.333z"/>
<path style="fill:#ef8e23; stroke:none;" d="M102.667 177.333L103.333 177.667L102.667 177.333z"/>
<path style="fill:#e39d63; stroke:none;" d="M149 177L150 178L149 177z"/>
<path style="fill:#f6c7a2; stroke:none;" d="M150 177L151 178L150 177M84 178L85 179L84 178z"/>
<path style="fill:#e39d63; stroke:none;" d="M85 178L86 179L85 178M147 178L148 179L147 178z"/>
<path style="fill:#f6c7a2; stroke:none;" d="M148 178L149 179L148 178M86 179L87 180L86 179z"/>
<path style="fill:#e39d63; stroke:none;" d="M87 179L88 180L87 179M145 179L146 180L145 179z"/>
<path style="fill:#f6c7a2; stroke:none;" d="M146 179L147 180L146 179M88.6667 180.333L89.3333 180.667L88.6667 180.333z"/>
<path style="fill:#e39d63; stroke:none;" d="M90 180L91 181L90 180z"/>
<path style="fill:#f07324; stroke:none;" d="M91 180L92 181L91 180z"/>
<path style="fill:#ef8e23; stroke:none;" d="M142 180L143 181L142 180z"/>
<path style="fill:#e39d63; stroke:none;" d="M143 180L144 181L143 180z"/>
<path style="fill:#f6c7a2; stroke:none;" d="M144 180L145 181L144 180M91 181L92 182L91 181z"/>
<path style="fill:#e39d63; stroke:none;" d="M92 181L93 182L92 181z"/>
<path style="fill:#ef8e23; stroke:none;" d="M139 181L140 182L139 181z"/>
<path style="fill:#f6c7a2; stroke:none;" d="M140.667 181.333L141.333 181.667L140.667 181.333M94.6667 182.333L95.3333 182.667L94.6667 182.333z"/>
<path style="fill:#e39d63; stroke:none;" d="M96 182L97 183L96 182z"/>
<path style="fill:#ef8e23; stroke:none;" d="M97 182L97 183L100 183L97 182M101 184L104 182L101 184z"/>
<path style="fill:#e39d63; stroke:none;" d="M136.667 182.333L137.333 182.667L136.667 182.333z"/>
<path style="fill:#f6c7a2; stroke:none;" d="M138 182L139 183L138 182M98 183L99 184L98 183z"/>
<path style="fill:#e39d63; stroke:none;" d="M99.6667 183.333L100.333 183.667L99.6667 183.333M132.667 183.333L133.333 183.667L132.667 183.333z"/>
<path style="fill:#f6c7a2; stroke:none;" d="M134.667 183.333L135.333 183.667L134.667 183.333M102.667 184.333L103.333 184.667L102.667 184.333z"/>
<path style="fill:#e39d63; stroke:none;" d="M104 184L104 185L108 185L104 184z"/>
<path style="fill:#ef8e23; stroke:none;" d="M125.667 184.333L126.333 184.667L125.667 184.333z"/>
<path style="fill:#e39d63; stroke:none;" d="M127.667 184.333L128.333 184.667L127.667 184.333z"/>
<path style="fill:#f6c7a2; stroke:none;" d="M129.667 184.333L130.333 184.667L129.667 184.333M110 185L110 186L125 186L110 185M57 191L60 195L61 194L57 191z"/>
<path style="fill:#e39d63; stroke:none;" d="M58 192L60 194L58 192M60 194L68 203L66 197L63 198L60 194z"/>
<path style="fill:#f6c7a2; stroke:none;" d="M64 196L65 197L64 196z"/>
<path style="fill:#ef8e23; stroke:none;" d="M63.6667 197.333L64.3333 197.667L63.6667 197.333z"/>
<path style="fill:#f6c7a2; stroke:none;" d="M66 197L68 199L66 197M163 199L166 197L163 199z"/>
<path style="fill:#ef8e23; stroke:none;" d="M65 198L69 201L73 207L78 205L65 198z"/>
<path style="fill:#f6c7a2; stroke:none;" d="M63 199L64 200L63 199z"/>
<path style="fill:#e39d63; stroke:none;" d="M68 199L69 200L68 199z"/>
<path style="fill:#f6c7a2; stroke:none;" d="M69 199L70 200L69 199M161 199L162 200L161 199z"/>
<path style="fill:#e39d63; stroke:none;" d="M160 201L164 199L160 201z"/>
<path style="fill:#f6c7a2; stroke:none;" d="M70 200L71 201L70 200z"/>
<path style="fill:#f07324; stroke:none;" d="M68.3333 201.667L68.6667 202.333L68.3333 201.667z"/>
<path style="fill:#e39d63; stroke:none;" d="M71 201L72 202L71 201z"/>
<path style="fill:#f6c7a2; stroke:none;" d="M72 201L73 202L72 201M158 201L159 202L158 201z"/>
<path style="fill:#f07324; stroke:none;" d="M82 207C82 209.783 80.4646 209.318 78 209L78 210C102.829 220.323 141.702 226.004 161 201C152.806 203.593 145.41 208.209 137 210.572C118.504 215.768 99.8407 213.376 82 207M70 202L71 203L70 202M72 202L73 203L72 202z"/>
<path style="fill:#e39d63; stroke:none;" d="M73 202L74 203L73 202z"/>
<path style="fill:#f6c7a2; stroke:none;" d="M156 202L157 203L156 202M160 202L161 203L160 202M68 203L69 204L68 203z"/>
<path style="fill:#e39d63; stroke:none;" d="M75 203L76 204L75 203z"/>
<path style="fill:#f6c7a2; stroke:none;" d="M154 203L155 204L154 203z"/>
<path style="fill:#ef8e23; stroke:none;" d="M155 203L156 204L155 203z"/>
<path style="fill:#f6c7a2; stroke:none;" d="M159 203L160 204L159 203M69 204L70 205L69 204z"/>
<path style="fill:#e39d63; stroke:none;" d="M77 204L80 206L80 205L77 204z"/>
<path style="fill:#f6c7a2; stroke:none;" d="M78 204L79 205L78 204M152 204L153 205L152 204z"/>
<path style="fill:#ef8e23; stroke:none;" d="M153 204L154 205L153 204z"/>
<path style="fill:#f6c7a2; stroke:none;" d="M158 204L159 205L158 204M70 205L71 206L70 205z"/>
<path style="fill:#e39d63; stroke:none;" d="M71 205L72 206L71 205z"/>
<path style="fill:#f07324; stroke:none;" d="M72 205L73 206L72 205M75 205L76 206L75 205z"/>
<path style="fill:#f6c7a2; stroke:none;" d="M80 205L81 206L80 205M150 205L151 206L150 205z"/>
<path style="fill:#e39d63; stroke:none;" d="M151 205L152 206L151 205M156 205L157 206L156 205z"/>
<path style="fill:#f6c7a2; stroke:none;" d="M72 206L73 207L72 206z"/>
<path style="fill:#f07324; stroke:none;" d="M74 206L74 207L79 206L74 206z"/>
<path style="fill:#ef8e23; stroke:none;" d="M79 206L77 208L77 209L83 208L79 206z"/>
<path style="fill:#f07324; stroke:none;" d="M80 206L81 207L80 206z"/>
<path style="fill:#e39d63; stroke:none;" d="M81 206L82 207L81 206z"/>
<path style="fill:#f6c7a2; stroke:none;" d="M82.6667 206.333L83.3333 206.667L82.6667 206.333M147 206L148 207L147 206z"/>
<path style="fill:#e39d63; stroke:none;" d="M148 206L149 207L148 206z"/>
<path style="fill:#f6c7a2; stroke:none;" d="M155 206L156 207L155 206M73 207L74 208L73 207z"/>
<path style="fill:#e39d63; stroke:none;" d="M74 207L75 208L74 207z"/>
<path style="fill:#ef8e23; stroke:none;" d="M83 207L84 208L83 207z"/>
<path style="fill:#e39d63; stroke:none;" d="M84 207L85 208L84 207z"/>
<path style="fill:#f6c7a2; stroke:none;" d="M85 207L86 208L85 207M145 207L146 208L145 207z"/>
<path style="fill:#e39d63; stroke:none;" d="M146 207L147 208L146 207M153 207L154 208L153 207z"/>
<path style="fill:#f6c7a2; stroke:none;" d="M154 207L155 208L154 207M75 208L77 210L75 208z"/>
<path style="fill:#e39d63; stroke:none;" d="M76 208L77 209L76 208M86 208L87 209L86 208z"/>
<path style="fill:#f6c7a2; stroke:none;" d="M87.6667 208.333L88.3333 208.667L87.6667 208.333M142 208L143 209L142 208z"/>
<path style="fill:#e39d63; stroke:none;" d="M143 208L144 209L143 208z"/>
<path style="fill:#f6c7a2; stroke:none;" d="M152.667 208.333L153.333 208.667L152.667 208.333z"/>
<path style="fill:#e39d63; stroke:none;" d="M77 209L78 210L77 209z"/>
<path style="fill:#ef8e23; stroke:none;" d="M82 211L85 210L82 211M87 209L88 210L87 209z"/>
<path style="fill:#e39d63; stroke:none;" d="M89 209L90 210L89 209z"/>
<path style="fill:#f6c7a2; stroke:none;" d="M90.6667 209.333L91.3333 209.667L90.6667 209.333M139 209L140 210L139 209z"/>
<path style="fill:#e39d63; stroke:none;" d="M140 209L141 210L140 209M150 209L151 210L150 209z"/>
<path style="fill:#f6c7a2; stroke:none;" d="M78 210L79 211L78 210z"/>
<path style="fill:#e39d63; stroke:none;" d="M79 210L80 211L79 210z"/>
<path style="fill:#ef8e23; stroke:none;" d="M88 210L87 212L88 210z"/>
<path style="fill:#e39d63; stroke:none;" d="M93 210L94 211L93 210z"/>
<path style="fill:#f6c7a2; stroke:none;" d="M94 210L95 211L94 210M134.667 210.333L135.333 210.667L134.667 210.333z"/>
<path style="fill:#e39d63; stroke:none;" d="M136 210L137 211L136 210z"/>
<path style="fill:#ef8e23; stroke:none;" d="M137 210L138 211L137 210z"/>
<path style="fill:#e39d63; stroke:none;" d="M148 210L149 211L148 210z"/>
<path style="fill:#f6c7a2; stroke:none;" d="M149 210L150 211L149 210M80 211L81 212L80 211z"/>
<path style="fill:#e39d63; stroke:none;" d="M81 211L82 212L81 211z"/>
<path style="fill:#ef8e23; stroke:none;" d="M84 211L85 212L84 211z"/>
<path style="fill:#e39d63; stroke:none;" d="M96.6667 211.333L97.3333 211.667L96.6667 211.333z"/>
<path style="fill:#f6c7a2; stroke:none;" d="M98.6667 211.333L99.3333 211.667L98.6667 211.333M130.667 211.333L131.333 211.667L130.667 211.333z"/>
<path style="fill:#e39d63; stroke:none;" d="M132 211L133 212L132 211z"/>
<path style="fill:#ef8e23; stroke:none;" d="M133 211L134 212L133 211z"/>
<path style="fill:#f6c7a2; stroke:none;" d="M147 211L148 212L147 211M82 212L83 213L82 212z"/>
<path style="fill:#e39d63; stroke:none;" d="M83 212L84 213L83 212z"/>
<path style="fill:#ef8e23; stroke:none;" d="M102 212L103 213L102 212z"/>
<path style="fill:#e39d63; stroke:none;" d="M103.667 212.333L104.333 212.667L103.667 212.333z"/>
<path style="fill:#f6c7a2; stroke:none;" d="M105 212L105 213L109 213L105 212M122 212L122 213L126 213L122 212z"/>
<path style="fill:#e39d63; stroke:none;" d="M126.667 212.333L127.333 212.667L126.667 212.333M144 212L145 213L144 212z"/>
<path style="fill:#f6c7a2; stroke:none;" d="M145 212L146 213L145 212M84 213L85 214L84 213z"/>
<path style="fill:#e39d63; stroke:none;" d="M85 213L86 214L85 213M112 213L112 214L120 214L112 213M142 213L143 214L142 213z"/>
<path style="fill:#f6c7a2; stroke:none;" d="M143 213L144 214L143 213M87 214L88 215L87 214z"/>
<path style="fill:#e39d63; stroke:none;" d="M88 214L89 215L88 214M139 214L140 215L139 214z"/>
<path style="fill:#f6c7a2; stroke:none;" d="M140.667 214.333L141.333 214.667L140.667 214.333M89 215L90 216L89 215z"/>
<path style="fill:#e39d63; stroke:none;" d="M90 215L91 216L90 215z"/>
<path style="fill:#ef8e23; stroke:none;" d="M91 215L92 216L91 215z"/>
<path style="fill:#e39d63; stroke:none;" d="M137 215L138 216L137 215z"/>
<path style="fill:#f6c7a2; stroke:none;" d="M138 215L139 216L138 215M92 216L93 217L92 216z"/>
<path style="fill:#e39d63; stroke:none;" d="M93 216L94 217L93 216z"/>
<path style="fill:#ef8e23; stroke:none;" d="M94 216L95 217L94 216z"/>
<path style="fill:#e39d63; stroke:none;" d="M134 216L135 217L134 216z"/>
<path style="fill:#f6c7a2; stroke:none;" d="M135 216L136 217L135 216M96.6667 217.333L97.3333 217.667L96.6667 217.333z"/>
<path style="fill:#e39d63; stroke:none;" d="M98 217L99 218L98 217z"/>
<path style="fill:#ef8e23; stroke:none;" d="M99 217L100 218L99 217z"/>
<path style="fill:#e39d63; stroke:none;" d="M129 217L130 218L129 217z"/>
<path style="fill:#f6c7a2; stroke:none;" d="M130.667 217.333L131.333 217.667L130.667 217.333M101.667 218.333L102.333 218.667L101.667 218.333z"/>
<path style="fill:#e39d63; stroke:none;" d="M103 218L103 219L106 219L103 218M123.667 218.333L124.333 218.667L123.667 218.333z"/>
<path style="fill:#f6c7a2; stroke:none;" d="M125 218L125 219L128 219L125 218M107 219L107 220L120 220L107 219z"/>
</svg>
