<?xml version="1.0" standalone="no"?>
<!DOCTYPE svg PUBLIC "-//W3C//DTD SVG 20010904//EN"
 "http://www.w3.org/TR/2001/REC-SVG-20010904/DTD/svg10.dtd">
<svg version="1.0" xmlns="http://www.w3.org/2000/svg"
 width="400.000000pt" height="400.000000pt" viewBox="0 0 400.000000 400.000000"
 preserveAspectRatio="xMidYMid meet">

<g transform="translate(0.000000,400.000000) scale(0.100000,-0.100000)"
fill="#000000" stroke="none">
<path d="M2440 3320 c-9 -6 -10 -10 -3 -10 6 0 15 5 18 10 8 12 4 12 -15 0z"/>
<path d="M2406 3297 c3 -10 9 -15 12 -12 3 3 0 11 -7 18 -10 9 -11 8 -5 -6z"/>
<path d="M2458 3288 c-4 -10 6 -22 33 -37 22 -13 39 -18 39 -11 0 6 5 8 10 5
6 -4 7 -11 4 -17 -4 -6 -3 -8 3 -5 5 3 9 16 7 29 -4 34 -4 34 -15 16 -11 -20
-39 -25 -39 -7 0 5 -5 7 -10 4 -6 -3 -14 4 -18 16 -7 17 -10 19 -14 7z"/>
<path d="M2516 3273 c-6 -14 -5 -15 5 -6 7 7 10 15 7 18 -3 3 -9 -2 -12 -12z"/>
<path d="M2569 3258 c-9 -36 -5 -45 29 -67 20 -12 39 -22 42 -21 3 2 27 -18
55 -43 70 -65 70 -48 0 23 -48 49 -61 57 -73 47 -13 -10 -14 -8 -8 9 5 16 0
25 -19 38 -14 9 -25 15 -26 14z m37 -45 c-7 -7 -21 -4 -21 5 0 4 -4 14 -9 22
-6 9 -1 7 12 -4 12 -11 20 -21 18 -23z m42 -38 c-3 -3 -9 2 -12 12 -6 14 -5
15 5 6 7 -7 10 -15 7 -18z"/>
<path d="M2138 2973 c7 -3 16 -2 19 1 4 3 -2 6 -13 5 -11 0 -14 -3 -6 -6z"/>
<path d="M2188 2963 c7 -3 16 -2 19 1 4 3 -2 6 -13 5 -11 0 -14 -3 -6 -6z"/>
<path d="M2340 2900 c-7 -5 0 -7 18 -6 17 1 33 3 35 6 9 8 -40 8 -53 0z"/>
<path d="M2424 2885 c10 -8 24 -16 30 -18 6 -2 8 -8 3 -12 -4 -5 -13 -3 -19 3
-7 7 -17 12 -22 12 -6 0 -5 -4 3 -9 11 -7 10 -14 -4 -37 l-17 -29 20 23 c21
22 42 29 42 13 0 -5 -6 -12 -12 -15 -7 -3 -4 -4 7 -1 24 5 73 -19 57 -29 -6
-3 -18 1 -26 10 -13 13 -20 14 -31 4 -8 -7 -12 -17 -9 -22 3 -5 6 -59 5 -119
-1 -67 3 -117 10 -131 9 -16 9 -23 0 -26 -6 -2 -11 -11 -11 -19 0 -10 6 -13
18 -9 16 7 16 6 -1 -11 -15 -16 -19 -16 -27 -3 -5 8 -18 16 -29 16 -11 1 -18
-2 -15 -7 2 -4 12 -5 22 -2 9 3 14 3 10 -2 -12 -13 21 -38 35 -27 9 8 13 3 14
-19 1 -15 -2 -31 -6 -34 -5 -3 -7 4 -4 15 3 11 1 20 -5 20 -19 0 -25 -22 -9
-37 17 -17 37 -10 37 13 0 12 3 12 20 2 11 -7 20 -17 20 -22 0 -4 -7 -3 -16 5
-13 11 -15 9 -10 -17 4 -16 3 -23 0 -16 -3 6 -13 12 -22 11 -11 0 -12 -2 -4
-6 6 -2 12 -10 12 -17 0 -7 6 -20 13 -31 11 -14 16 -15 22 -5 6 9 4 11 -6 5
-11 -7 -12 -6 -3 6 7 8 14 23 17 34 4 18 5 17 6 -3 0 -13 5 -21 10 -18 5 4 8
-1 7 -9 -1 -9 -6 -15 -11 -14 -4 0 -11 -5 -15 -12 -9 -14 8 -59 22 -59 5 0 6
5 2 12 -4 7 -3 8 4 4 9 -5 9 -12 1 -25 -9 -13 -7 -27 10 -61 23 -48 25 -53 13
-46 -6 4 -6 -51 1 -196 1 -25 0 -45 -2 -42 -10 10 -40 -105 -36 -139 6 -44
-17 -96 -43 -99 -9 0 -23 -2 -29 -2 -7 -1 -13 -6 -13 -11 1 -15 63 -5 83 12 9
9 17 13 17 9 0 -11 -27 -36 -39 -36 -6 0 -11 -5 -11 -12 0 -9 -3 -9 -12 0 -13
13 -29 16 -25 4 2 -7 -6 -12 -24 -12 -5 0 -7 5 -4 10 12 20 -2 9 -31 -22 -16
-18 -22 -27 -14 -20 24 20 34 14 14 -9 -19 -22 -19 -22 4 -10 12 7 22 8 22 2
0 -5 -6 -11 -12 -13 -7 -3 2 -5 20 -5 l33 0 -25 24 c-14 13 -26 29 -26 35 0 6
8 4 18 -5 10 -10 22 -14 26 -10 4 4 4 0 0 -10 -4 -10 0 -19 9 -23 18 -7 12
-37 -14 -60 -16 -15 -19 -31 -19 -114 0 -90 2 -98 25 -118 14 -12 32 -22 40
-22 8 0 15 -6 15 -14 0 -24 27 -26 47 -3 18 21 18 21 -2 7 -18 -14 -19 -13 -8
1 15 19 8 30 -15 23 -15 -5 -15 -4 0 6 11 6 15 17 11 28 -6 15 -5 15 11 3 12
-10 14 -16 5 -21 -8 -6 -8 -9 0 -14 6 -4 16 -4 23 0 7 5 8 3 3 -7 -10 -15 104
81 125 106 10 11 10 18 1 29 -9 11 -9 16 0 22 7 4 9 3 5 -4 -3 -6 -2 -13 2
-16 12 -7 54 38 50 55 -2 7 3 13 11 14 19 0 113 165 107 188 -2 9 0 15 4 12
23 -14 80 247 80 370 0 150 -52 348 -125 478 -15 26 -31 45 -36 42 -5 -4 -6 0
-4 8 6 13 -30 62 -45 62 -5 0 -12 4 -17 9 -5 5 -3 6 5 2 20 -12 13 9 -11 32
-13 12 -27 19 -32 15 -4 -5 -5 -2 -1 5 5 9 -2 24 -20 43 -26 28 -52 40 -39 19
3 -5 4 -10 0 -10 -3 0 -10 11 -15 24 -4 13 -37 43 -72 68 -86 60 -86 60 -94
47 -4 -8 -3 -9 5 -5 7 5 10 2 9 -6 -2 -7 5 -12 14 -12 9 1 19 -4 22 -12 6 -16
-19 -8 -52 17 -15 12 -18 19 -10 22 16 6 -16 33 -47 41 -19 5 -19 5 -1 -9z
m146 -90 c7 -9 8 -15 2 -15 -5 0 -12 7 -16 15 -3 8 -4 15 -2 15 2 0 9 -7 16
-15z m70 -51 c0 -2 -9 0 -20 6 -11 6 -20 13 -20 16 0 2 9 0 20 -6 11 -6 20
-13 20 -16z m-10 -17 c0 -1 -16 -2 -34 -3 -19 0 -33 3 -30 7 2 5 12 5 21 2 11
-5 14 -3 8 6 -6 10 -3 11 14 2 11 -7 21 -13 21 -14z m51 -50 c-10 -9 -11 -8
-5 6 3 10 9 15 12 12 3 -3 0 -11 -7 -18z m-172 -205 c-13 -5 -36 21 -31 36 2
8 10 4 22 -10 10 -13 14 -24 9 -26z m11 -53 c0 -6 -4 -7 -10 -4 -5 3 -10 11
-10 16 0 6 5 7 10 4 6 -3 10 -11 10 -16z m40 -145 c0 -8 -19 -13 -24 -6 -3 5
1 9 9 9 8 0 15 -2 15 -3z m50 -374 c0 -5 -2 -10 -4 -10 -3 0 -8 5 -11 10 -3 6
-1 10 4 10 6 0 11 -4 11 -10z m-23 -82 c-3 -8 -6 -5 -6 6 -1 11 2 17 5 13 3
-3 4 -12 1 -19z m-70 -260 c-3 -8 -6 -5 -6 6 -1 11 2 17 5 13 3 -3 4 -12 1
-19z m228 -127 c3 -5 2 -12 -3 -15 -5 -3 -9 1 -9 9 0 17 3 19 12 6z m-34 -103
c-10 -11 -11 -9 -5 7 7 18 6 18 -9 6 -9 -7 -14 -18 -10 -24 3 -5 1 -7 -4 -4
-6 4 -17 -1 -24 -10 -12 -15 -12 -16 6 -9 15 5 17 4 8 -5 -6 -6 -17 -8 -23 -4
-8 5 -1 18 21 41 22 23 36 31 43 24 7 -7 6 -14 -3 -22z m-41 18 c0 -2 -8 -10
-17 -17 -16 -13 -17 -12 -4 4 13 16 21 21 21 13z"/>
<path d="M2038 2603 c7 -3 16 -2 19 1 4 3 -2 6 -13 5 -11 0 -14 -3 -6 -6z"/>
<path d="M2305 2549 c-4 -6 -4 -13 -1 -16 3 -4 6 -1 6 6 0 7 5 9 12 5 7 -4 8
-3 4 4 -9 15 -13 15 -21 1z"/>
<path d="M2358 2543 c7 -3 16 -2 19 1 4 3 -2 6 -13 5 -11 0 -14 -3 -6 -6z"/>
<path d="M2364 2511 c21 -23 26 -26 26 -11 0 5 -10 15 -22 21 -23 12 -23 12
-4 -10z"/>
<path d="M2355 2480 c10 -11 20 -20 23 -20 3 0 -3 9 -13 20 -10 11 -20 20 -23
20 -3 0 3 -9 13 -20z"/>
<path d="M2513 1718 c-9 -18 -17 -37 -18 -41 0 -4 -7 -12 -15 -17 -12 -8 -11
-10 7 -10 27 0 51 35 51 73 -1 35 -4 34 -25 -5z m3 -26 c-17 -16 -18 -16 -5 5
7 12 15 20 18 17 3 -2 -3 -12 -13 -22z"/>
<path d="M2349 1523 c-13 -17 -13 -17 5 -3 18 14 19 13 14 -7 -4 -16 -2 -20 8
-16 18 7 18 17 0 32 -10 9 -17 7 -27 -6z"/>
<path d="M2335 1470 c-3 -6 1 -7 9 -4 18 7 21 14 7 14 -6 0 -13 -4 -16 -10z"/>
<path d="M2370 1460 c0 -5 5 -10 10 -10 6 0 10 5 10 10 0 6 -4 10 -10 10 -5 0
-10 -4 -10 -10z"/>
<path d="M2436 1216 c7 -19 58 -22 52 -3 -3 6 -17 13 -31 15 -21 3 -26 0 -21
-12z"/>
<path d="M2511 1183 c13 -15 12 -15 -8 -5 -12 7 -34 11 -50 11 -26 -2 -25 -2
7 -9 29 -6 31 -8 10 -10 l-25 -2 25 -8 c21 -7 22 -8 5 -9 -11 -1 -31 -10 -45
-21 -14 -11 -30 -20 -37 -20 -6 0 -15 -5 -19 -12 -4 -6 -3 -9 2 -7 133 65 162
84 152 96 -6 7 -15 13 -20 13 -6 0 -4 -7 3 -17z"/>
<path d="M2337 1089 c7 -7 15 -10 18 -7 3 3 -2 9 -12 12 -14 6 -15 5 -6 -5z"/>
<path d="M2260 1065 c-15 -8 -19 -14 -10 -14 18 -1 46 16 40 23 -3 2 -16 -2
-30 -9z"/>
<path d="M2028 1023 c18 -2 45 -2 60 0 15 2 0 4 -33 4 -33 0 -45 -2 -27 -4z"/>
<path d="M2557 796 c-31 -18 -54 -36 -50 -41 5 -4 3 -5 -4 -2 -17 10 -66 -11
-57 -25 4 -7 3 -8 -4 -4 -7 4 -46 -4 -87 -19 -96 -33 -214 -55 -345 -64 -74
-6 -90 -9 -55 -11 28 -2 64 -2 80 -1 26 1 24 -1 -15 -15 -61 -22 -64 -28 -10
-20 59 9 45 -3 -17 -14 -39 -6 -31 -7 37 -4 95 4 190 23 190 36 0 5 5 6 11 2
6 -3 15 0 20 7 5 8 9 9 9 3 0 -7 26 -1 65 14 35 14 61 30 58 35 -3 6 -1 7 5 3
14 -8 90 34 151 83 24 20 53 44 65 53 31 26 18 21 -47 -16z m-437 -165 c0 -4
-11 -6 -25 -3 -14 2 -25 6 -25 8 0 2 11 4 25 4 14 0 25 -4 25 -9z m-20 -15 c0
-2 -7 -7 -16 -10 -8 -3 -12 -2 -9 4 6 10 25 14 25 6z"/>
<path d="M1850 610 c8 -5 20 -10 25 -10 6 0 3 5 -5 10 -8 5 -19 10 -25 10 -5
0 -3 -5 5 -10z"/>
<path d="M1900 600 c-9 -6 -10 -10 -3 -10 6 0 15 5 18 10 8 12 4 12 -15 0z"/>
<path d="M1808 587 c14 -6 26 -7 32 -1 5 5 -4 9 -23 10 -30 1 -30 1 -9 -9z"/>
</g>
</svg>
