<?xml version="1.0" standalone="no"?>
<!DOCTYPE svg PUBLIC "-//W3C//DTD SVG 20010904//EN"
 "http://www.w3.org/TR/2001/REC-SVG-20010904/DTD/svg10.dtd">
<svg version="1.0" xmlns="http://www.w3.org/2000/svg"
 width="225.000000pt" height="225.000000pt" viewBox="0 0 225.000000 225.000000"
 preserveAspectRatio="xMidYMid meet">

<g transform="translate(0.000000,225.000000) scale(0.100000,-0.100000)"
fill="#000000" stroke="none">
<path d="M1470 2140 c-9 -6 -10 -10 -3 -10 6 0 15 5 18 10 8 12 4 12 -15 0z"/>
<path d="M1522 2121 c-11 -7 -11 -9 0 -14 9 -3 15 1 15 9 0 8 -1 14 -1 14 -1
0 -7 -4 -14 -9z"/>
<path d="M1553 2104 c0 -16 13 -19 21 -5 3 5 0 11 -7 14 -8 3 -14 -1 -14 -9z"/>
<path d="M1586 2092 c-3 -6 3 -13 13 -17 11 -3 23 -14 26 -23 3 -9 27 -33 53
-52 40 -29 44 -30 27 -9 -11 14 -23 25 -26 25 -3 -1 -24 19 -46 43 -24 27 -43
40 -47 33z"/>
<path d="M1463 1819 c23 -13 22 -26 -4 -34 -11 -4 -19 -9 -16 -11 2 -2 18 1
35 7 l32 11 -24 19 c-13 10 -28 19 -33 19 -4 0 0 -5 10 -11z"/>
<path d="M1388 1813 c7 -3 16 -2 19 1 4 3 -2 6 -13 5 -11 0 -14 -3 -6 -6z"/>
<path d="M1380 1779 c0 -5 5 -7 10 -4 6 3 10 8 10 11 0 2 -4 4 -10 4 -5 0 -10
-5 -10 -11z"/>
<path d="M1513 1780 c-21 -9 -23 -15 -23 -92 1 -53 5 -89 14 -100 7 -10 15
-15 19 -12 3 3 8 -4 12 -15 3 -12 10 -19 15 -16 24 15 20 -60 -4 -78 -7 -5 -6
-12 5 -20 15 -11 15 -16 3 -37 -7 -14 -14 -20 -14 -15 0 6 -12 24 -26 40 -14
17 -21 21 -16 10 6 -11 21 -32 35 -47 14 -15 22 -30 18 -34 -3 -4 4 -1 17 5
12 6 22 17 22 23 0 7 -5 6 -15 -2 -19 -15 -19 -1 -1 23 13 16 14 16 20 -8 5
-20 1 -31 -16 -46 -13 -11 -17 -17 -9 -14 10 6 11 2 6 -15 -5 -15 -4 -20 4
-16 6 4 12 1 13 -6 0 -7 2 -24 4 -38 1 -14 5 -43 8 -65 3 -22 7 -47 8 -55 3
-16 -17 -117 -31 -161 -6 -16 -4 -34 4 -49 9 -16 10 -31 4 -42 -6 -10 -5 -19
1 -23 5 -3 10 -19 10 -36 0 -16 5 -29 10 -29 6 0 10 -7 10 -15 0 -22 -17 -18
-23 5 -4 14 -10 18 -23 13 -14 -5 -16 -3 -10 13 16 38 18 54 7 54 -6 0 -11 -9
-11 -20 0 -15 -7 -20 -25 -20 -14 0 -29 -8 -35 -20 -10 -19 -9 -20 14 -14 l26
6 0 -80 c0 -45 4 -84 10 -87 6 -4 5 -11 -2 -19 -11 -11 -17 -11 -35 1 -23 15
-23 15 -23 -31 0 -30 4 -45 10 -41 6 4 25 8 43 11 l32 4 -30 -20 c-33 -22 -33
-22 8 -24 19 -1 26 2 23 11 -3 7 4 17 15 23 11 6 16 16 13 22 -5 7 -2 8 5 4 9
-6 8 -13 -6 -28 -18 -20 -18 -21 4 -10 38 20 164 155 159 169 -3 8 -2 11 3 8
5 -3 12 -1 16 5 3 5 1 10 -4 10 -6 0 -11 4 -11 10 0 5 6 7 14 4 17 -7 40 31
30 48 -4 7 -3 8 4 4 14 -8 45 61 37 81 -2 8 -1 12 4 9 8 -5 22 36 36 103 5 23
3 36 -6 42 -11 7 -10 9 5 9 18 0 18 7 14 116 -3 64 -9 119 -14 123 -5 3 -10
22 -12 41 -1 19 -6 37 -10 40 -4 3 -7 11 -8 18 -2 29 -5 33 -14 27 -6 -3 -10
5 -10 19 0 33 -20 77 -32 70 -5 -3 -8 0 -7 7 2 8 -3 25 -10 38 -10 19 -15 21
-22 10 -8 -12 -9 -11 -8 1 3 22 -11 50 -25 50 -18 0 -56 43 -56 63 0 9 -3 17
-7 18 -29 3 -47 10 -62 23 -21 19 -61 21 -61 4 0 -7 -7 -2 -17 11 -13 19 -14
28 -4 42 6 11 10 19 9 18 -2 0 -13 -4 -25 -9z m82 -70 c4 -6 -7 -13 -24 -16
-28 -6 -31 -10 -31 -45 0 -22 -4 -39 -10 -39 -5 0 -10 20 -10 45 0 38 3 45 20
45 11 0 20 5 20 10 0 13 27 13 35 0z m193 -225 c-3 -3 -9 2 -12 12 -6 14 -5
15 5 6 7 -7 10 -15 7 -18z m-128 -282 c0 -5 -5 -15 -10 -23 -8 -12 -10 -11
-10 8 0 12 5 22 10 22 6 0 10 -3 10 -7z m85 -511 c-6 -4 -25 -24 -43 -45 -17
-21 -32 -33 -32 -26 0 6 -6 9 -14 6 -8 -3 -17 0 -19 7 -6 14 24 17 34 3 3 -4
21 10 39 33 18 22 36 38 39 35 3 -4 1 -9 -4 -13z m-175 -87 c0 -8 -2 -15 -4
-15 -2 0 -6 7 -10 15 -3 8 -1 15 4 15 6 0 10 -7 10 -15z m56 1 c21 -21 17 -32
-4 -13 -14 13 -21 14 -30 5 -7 -7 -12 -8 -12 -2 0 26 24 31 46 10z"/>
<path d="M1539 1770 c-7 -5 -10 -13 -5 -17 5 -4 11 -2 13 5 4 10 9 9 24 -4 11
-9 21 -15 24 -12 11 11 -41 36 -56 28z"/>
<path d="M1610 1736 c0 -2 8 -10 18 -17 15 -13 16 -12 3 4 -13 16 -21 21 -21
13z"/>
<path d="M1706 1645 c9 -14 20 -25 25 -25 5 0 -1 11 -13 25 -12 14 -23 25 -25
25 -2 0 4 -11 13 -25z"/>
<path d="M1375 1570 c3 -5 8 -10 11 -10 2 0 4 5 4 10 0 6 -5 10 -11 10 -5 0
-7 -4 -4 -10z"/>
<path d="M1416 1545 c4 -8 1 -15 -5 -15 -6 0 -11 5 -11 10 0 6 -6 10 -12 10
-7 0 3 -14 22 -29 39 -33 58 -23 33 16 -17 26 -36 31 -27 8z"/>
<path d="M1493 1540 c-5 -17 -8 -19 -15 -8 -7 9 -8 8 -4 -6 4 -10 1 -25 -5
-32 -9 -11 -7 -15 7 -20 11 -4 31 -18 47 -32 15 -14 27 -21 27 -14 0 6 -4 14
-10 17 -5 3 -10 19 -10 35 0 16 -4 31 -10 35 -5 3 -7 12 -4 19 3 8 0 17 -6 21
-7 4 -14 -2 -17 -15z m27 -44 c0 -8 -9 -13 -24 -12 -13 0 -22 5 -19 9 3 5 11
6 19 3 8 -3 14 -1 14 4 0 6 2 10 5 10 3 0 5 -6 5 -14z"/>
<path d="M1557 936 c-4 -10 -1 -13 8 -9 8 3 12 9 9 14 -7 12 -11 11 -17 -5z"/>
<path d="M1570 911 c-8 -6 -17 -8 -21 -5 -4 2 -10 1 -13 -4 -2 -4 6 -9 19 -10
13 -1 26 5 29 13 6 17 6 18 -14 6z"/>
<path d="M1469 821 c-32 -34 -40 -47 -25 -42 11 5 26 18 32 29 6 12 19 31 29
42 38 42 8 18 -36 -29z"/>
<path d="M1468 776 c-25 -18 -22 -29 3 -16 11 7 27 9 35 6 8 -3 14 -1 14 3 0
5 -7 12 -16 15 -19 7 -15 8 -36 -8z"/>
<path d="M1400 767 c0 -2 6 -10 14 -16 11 -9 16 -9 22 1 4 7 4 10 -1 6 -4 -4
-14 -3 -22 3 -7 6 -13 9 -13 6z"/>
<path d="M1475 739 c-5 -8 0 -9 16 -5 13 3 18 3 12 0 -20 -9 -17 -84 3 -84 23
0 16 94 -8 98 -9 2 -19 -2 -23 -9z"/>
<path d="M1340 730 c-9 -6 -10 -10 -3 -10 6 0 15 5 18 10 8 12 4 12 -15 0z"/>
<path d="M1238 693 c7 -3 16 -2 19 1 4 3 -2 6 -13 5 -11 0 -14 -3 -6 -6z"/>
<path d="M1483 533 c-9 -3 -10 -10 -3 -23 12 -22 -9 -40 -72 -60 -40 -12 -54
-26 -15 -15 37 11 127 58 127 66 0 5 6 6 14 3 8 -3 17 0 22 7 4 8 3 10 -4 5
-6 -4 -22 0 -34 7 -13 8 -29 13 -35 10z"/>
<path d="M1423 480 c-34 -14 -28 -21 7 -9 17 6 30 13 30 15 0 6 -12 4 -37 -6z"/>
<path d="M1360 470 c0 -6 7 -10 15 -10 8 0 15 2 15 4 0 2 -7 6 -15 10 -8 3
-15 1 -15 -4z"/>
<path d="M1572 223 c-10 -10 -23 -19 -28 -20 -5 -1 -38 -13 -74 -27 -48 -17
-59 -25 -45 -29 13 -4 10 -5 -10 -5 -16 1 -41 0 -55 -1 -21 -1 -22 -3 -10 -12
12 -8 8 -9 -15 -6 -34 6 -207 -13 -215 -23 -3 -4 -12 -9 -20 -12 -8 -2 13 -5
45 -5 33 0 79 -3 103 -6 25 -3 40 -2 37 4 -4 5 -16 9 -28 10 -12 0 -31 5 -42
10 -15 7 -9 8 20 3 22 -3 54 -5 70 -5 24 1 27 -1 15 -10 -12 -8 -9 -9 10 -3
14 4 26 10 28 15 2 4 10 5 19 2 12 -5 14 -3 8 7 -6 10 -4 12 8 7 20 -8 140 52
186 93 18 16 29 30 22 30 -6 0 -19 -8 -29 -17z"/>
<path d="M988 123 c7 -3 16 -2 19 1 4 3 -2 6 -13 5 -11 0 -14 -3 -6 -6z"/>
<path d="M1030 90 c8 -5 20 -10 25 -10 6 0 3 5 -5 10 -8 5 -19 10 -25 10 -5 0
-3 -5 5 -10z"/>
<path d="M1098 63 c7 -3 16 -2 19 1 4 3 -2 6 -13 5 -11 0 -14 -3 -6 -6z"/>
</g>
</svg>
