<?xml version="1.0" standalone="no"?>
<!DOCTYPE svg PUBLIC "-//W3C//DTD SVG 20010904//EN"
 "http://www.w3.org/TR/2001/REC-SVG-20010904/DTD/svg10.dtd">
<svg version="1.0" xmlns="http://www.w3.org/2000/svg"
 width="400.000000pt" height="400.000000pt" viewBox="0 0 400.000000 400.000000"
 preserveAspectRatio="xMidYMid meet">

<g transform="translate(0.000000,400.000000) scale(0.100000,-0.100000)"
fill="#000000" stroke="none">
<path d="M2485 3270 c3 -5 11 -10 16 -10 6 0 7 5 4 10 -3 6 -11 10 -16 10 -6
0 -7 -4 -4 -10z"/>
<path d="M2530 3250 c8 -5 22 -9 30 -9 10 0 8 3 -5 9 -27 12 -43 12 -25 0z"/>
<path d="M2513 3226 c-10 -11 -9 -15 3 -20 24 -9 31 -7 14 5 -12 8 -9 10 12 6
18 -3 32 2 40 12 11 14 11 14 -2 4 -10 -8 -21 -9 -30 -3 -19 12 -23 12 -37 -4z"/>
<path d="M2593 3203 c9 -3 17 -9 17 -14 0 -5 12 -14 27 -20 22 -8 25 -12 13
-20 -11 -8 -9 -9 10 -4 l25 7 -22 -16 c-12 -9 -28 -15 -35 -14 -8 2 -14 -8
-16 -24 -3 -25 0 -28 25 -28 32 0 61 -15 50 -26 -4 -5 -23 -8 -42 -8 l-35 0 0
-168 c0 -101 4 -168 10 -168 10 0 45 -34 67 -67 11 -16 12 -27 4 -42 -9 -16
-8 -22 6 -31 15 -9 14 -10 -6 -4 l-24 6 22 -23 c11 -12 21 -32 20 -43 0 -20
-1 -20 -9 1 -5 12 -18 27 -29 33 -12 6 -20 16 -18 22 1 6 -4 13 -12 16 -8 2
-11 0 -7 -6 3 -6 1 -14 -5 -18 -8 -5 -9 -3 -4 6 5 9 4 11 -3 6 -16 -10 -15 2
2 19 7 8 16 11 20 8 3 -4 6 5 6 19 0 26 -25 56 -37 45 -3 -4 2 -9 11 -13 9 -3
16 -10 16 -15 0 -5 -10 -3 -23 5 -12 8 -32 14 -44 13 -23 -1 -23 -1 -3 -22 11
-12 17 -24 14 -28 -3 -3 13 -30 37 -60 24 -30 50 -63 56 -73 10 -16 11 -14 2
11 -5 17 -20 38 -32 48 -20 16 -20 18 -3 15 26 -4 68 -79 54 -95 -7 -9 -7 -13
1 -13 7 0 10 -3 7 -8 -2 -4 2 -15 9 -25 11 -15 13 -16 19 -2 3 8 10 15 16 15
7 0 5 -8 -4 -21 -11 -16 -12 -28 -4 -50 5 -15 15 -27 21 -26 6 1 12 -7 14 -18
3 -16 2 -17 -6 -5 -14 20 -14 10 3 -36 41 -117 44 -315 7 -448 -17 -61 -17
-72 -5 -91 12 -19 12 -22 0 -22 -8 0 -12 6 -9 14 3 7 0 13 -6 13 -6 0 -11 -6
-11 -13 0 -7 -9 -29 -19 -50 -10 -20 -15 -37 -10 -37 5 0 9 -144 9 -332 0
-182 -2 -329 -5 -327 -2 3 -5 145 -6 316 -1 256 -4 311 -15 309 -7 -1 -17 -6
-21 -11 -5 -4 -2 -5 6 0 11 6 13 4 7 -10 -4 -11 -2 -22 6 -27 10 -6 10 -8 1
-8 -7 0 -13 -8 -13 -19 0 -11 -9 -21 -22 -25 -39 -10 -44 -6 -18 14 22 17 40
67 19 54 -5 -3 -9 -10 -9 -17 0 -6 -17 -29 -37 -51 -21 -22 -30 -34 -21 -27
15 11 18 8 27 -25 13 -46 9 -53 -9 -19 -16 29 -32 32 -51 8 -13 -15 -12 -15 9
-4 18 10 22 9 22 -4 0 -8 3 -15 8 -15 4 0 5 -97 4 -215 -4 -204 -3 -215 15
-213 38 3 64 -2 58 -12 -3 -5 -22 -10 -41 -10 -32 0 -34 -2 -34 -36 0 -30 3
-35 21 -32 31 4 33 -27 3 -41 -13 -6 -24 -17 -24 -26 0 -9 -8 -14 -21 -12 -12
1 -24 -5 -26 -13 -4 -12 -3 -13 5 -1 5 7 14 11 20 7 5 -3 25 1 43 9 19 8 28
14 22 15 -7 0 -13 4 -13 10 0 5 7 6 17 3 11 -4 14 -3 9 5 -4 7 -2 12 3 12 6 0
11 -5 11 -11 0 -5 5 -7 11 -4 6 5 4 12 -8 21 -21 15 -10 19 16 5 13 -7 26 -4
47 9 26 18 62 41 73 47 2 2 -4 11 -13 22 -11 12 -14 21 -7 26 11 6 12 5 15
-17 2 -24 23 -16 71 28 28 25 44 42 36 38 -9 -4 -12 -3 -7 4 4 6 12 9 19 6 16
-6 61 41 53 54 -3 5 7 20 22 33 l27 24 -24 -27 c-14 -16 -19 -28 -13 -28 7 0
12 3 12 8 0 4 20 29 45 57 25 27 45 56 45 62 0 7 4 13 9 13 15 0 73 99 65 111
-5 8 -3 9 6 4 10 -6 12 -4 7 9 -4 9 -3 15 2 12 13 -8 85 146 115 245 50 166
58 224 59 414 0 230 -22 334 -111 545 -42 100 -86 172 -97 162 -5 -4 -5 -1 -1
5 9 15 -51 106 -65 98 -5 -3 -6 0 -4 7 3 8 -25 46 -65 88 -39 41 -68 69 -64
61 5 -9 3 -12 -4 -7 -7 4 -12 12 -12 18 0 19 -31 47 -46 41 -9 -3 -14 0 -12 8
2 8 -3 13 -10 11 -8 -1 -11 2 -8 7 9 13 -71 74 -85 65 -7 -4 -9 -3 -6 3 10 16
-124 91 -163 90 -19 0 -27 -2 -17 -4z m92 -33 c17 -11 26 -20 20 -20 -5 0 -23
9 -40 20 -16 11 -25 20 -20 20 6 0 24 -9 40 -20z m71 -48 c-4 -3 -14 2 -24 12
-16 18 -16 18 6 6 13 -6 21 -14 18 -18z m-29 -33 c2 -30 2 -32 -7 -11 -5 13
-14 20 -20 17 -5 -3 -10 0 -10 9 0 8 -6 17 -12 19 -7 3 1 4 17 2 26 -2 30 -6
32 -36z m109 -21 l19 -23 -25 20 c-14 11 -27 21 -29 22 -2 2 0 3 6 3 5 0 18
-10 29 -22z m-106 -355 c0 -179 -3 -323 -7 -319 -4 4 -6 80 -5 169 0 89 1 233
2 320 0 86 2 157 5 157 3 0 5 -147 5 -327z m260 182 c11 -13 10 -14 -4 -9 -9
3 -16 10 -16 15 0 13 6 11 20 -6z m-380 -315 c0 -5 -4 -10 -10 -10 -5 0 -10 5
-10 10 0 6 5 10 10 10 6 0 10 -4 10 -10z m151 -227 c-8 -15 -10 -15 -11 -2 0
17 10 32 18 25 2 -3 -1 -13 -7 -23z m66 -310 c-3 -10 -5 -4 -5 12 0 17 2 24 5
18 2 -7 2 -21 0 -30z m20 -55 c-3 -7 -5 -2 -5 12 0 14 2 19 5 13 2 -7 2 -19 0
-25z m-20 -55 c-3 -10 -5 -4 -5 12 0 17 2 24 5 18 2 -7 2 -21 0 -30z m-74
-313 c-3 -11 -7 -20 -9 -20 -2 0 -4 9 -4 20 0 11 4 20 9 20 5 0 7 -9 4 -20z
m-85 -159 c28 11 44 3 22 -11 -24 -15 -57 -11 -65 8 -5 13 -3 14 6 5 8 -8 19
-9 37 -2z m242 -435 c0 -2 -7 -9 -15 -16 -13 -11 -14 -10 -9 4 5 14 24 23 24
12z m0 -30 c0 -2 -8 -10 -17 -17 -16 -13 -17 -12 -4 4 13 16 21 21 21 13z
m-159 -62 c-17 -12 -22 -24 -19 -45 5 -33 -10 -43 -36 -24 -20 15 -12 39 10
31 8 -3 14 0 14 6 0 15 30 48 44 48 6 0 0 -7 -13 -16z m27 -26 c-9 -7 -18 -20
-21 -28 -4 -10 -6 -8 -6 6 -1 24 7 34 28 34 13 0 13 -2 -1 -12z"/>
<path d="M2705 870 c3 -5 8 -10 11 -10 2 0 4 5 4 10 0 6 -5 10 -11 10 -5 0 -7
-4 -4 -10z"/>
<path d="M2580 3124 c0 -8 5 -12 10 -9 6 4 8 11 5 16 -9 14 -15 11 -15 -7z"/>
<path d="M2530 2706 c0 -2 8 -10 18 -17 15 -13 16 -12 3 4 -13 16 -21 21 -21
13z"/>
<path d="M2481 2668 c2 -2 24 -21 49 -43 l45 -40 -40 43 c-21 23 -43 42 -49
42 -5 0 -7 -1 -5 -2z"/>
<path d="M2580 1375 c7 -8 17 -15 22 -15 6 0 5 7 -2 15 -7 8 -17 15 -22 15 -6
0 -5 -7 2 -15z"/>
<path d="M2508 1360 c-7 -11 -18 -20 -25 -20 -7 0 -13 -5 -13 -10 0 -16 38 7
50 30 14 26 4 26 -12 0z"/>
<path d="M2545 1369 c-4 -6 -4 -13 -1 -16 3 -4 6 -1 6 6 0 7 5 9 12 5 7 -4 8
-3 4 4 -9 15 -13 15 -21 1z"/>
<path d="M2515 1330 c-3 -5 -1 -10 4 -10 6 0 11 5 11 10 0 6 -2 10 -4 10 -3 0
-8 -4 -11 -10z"/>
<path d="M2442 1311 c-11 -7 -11 -9 0 -14 9 -3 15 1 15 9 0 8 -1 14 -1 14 -1
0 -7 -4 -14 -9z"/>
<path d="M2540 1310 c-8 -5 -12 -12 -9 -15 4 -3 12 1 19 10 14 17 11 19 -10 5z"/>
<path d="M2480 786 c0 -2 7 -7 16 -10 8 -3 12 -2 9 4 -6 10 -25 14 -25 6z"/>
<path d="M2487 739 c7 -7 15 -10 18 -7 3 3 -2 9 -12 12 -14 6 -15 5 -6 -5z"/>
<path d="M2328 683 c7 -3 16 -2 19 1 4 3 -2 6 -13 5 -11 0 -14 -3 -6 -6z"/>
<path d="M2278 673 c7 -3 16 -2 19 1 4 3 -2 6 -13 5 -11 0 -14 -3 -6 -6z"/>
</g>
</svg>
