<?xml version="1.0" encoding="utf-8"?>
<!-- Generator: Adobe Illustrator 24.0.1, SVG Export Plug-In . SVG Version: 6.00 Build 0)  -->
<svg version="1.1" id="Layer_1" xmlns="http://www.w3.org/2000/svg" xmlns:xlink="http://www.w3.org/1999/xlink" x="0px" y="0px"
	 viewBox="0 0 1218 827" style="enable-background:new 0 0 1218 827;" xml:space="preserve">
<style type="text/css">
	.st0{fill:#FFFFFF;}
	.st1{fill:#1133F5;}
	.st2{fill:#333333;}
	.st3{fill:#1A1A1A;}
</style>
<g>
	<g>
		<path class="st1" d="M403.18,101.62v388.41c0,10.33,12.49,15.51,19.8,8.2l83.09-83.09c6.53-6.53,10.19-15.38,10.19-24.6V203.11
			H703.7c9.23,0,18.08-3.67,24.6-10.19l83.09-83.09c7.31-7.31,2.13-19.8-8.2-19.8H414.78C408.38,90.02,403.18,95.22,403.18,101.62z"
			/>
		<g>
			<path class="st1" d="M657.11,262.28h-79.96v79.96l57.38,59.09c4.53,4.53,11.87,4.53,16.4,0l63.56-63.56
				c4.53-4.53,4.53-11.87,0-16.4L657.11,262.28z"/>
		</g>
	</g>
	<g>
		<path class="st2" d="M108.48,650.23h31.03v21.85h-31.03v63.14H84.45V582.28h63.58v21.85h-39.55V650.23z"/>
		<path class="st2" d="M290.16,735.23h-24.25l-4.15-27.75h-29.5l-4.15,27.75h-22.07l24.47-152.95h35.18L290.16,735.23z
			 M235.32,686.72h23.16l-11.36-77.35h-0.44L235.32,686.72z"/>
		<path class="st2" d="M409.16,735.23c-1.31-3.93-2.18-6.34-2.18-18.79V692.4c0-14.2-4.81-19.45-15.73-19.45h-8.3v62.27H358.9
			V582.28h36.27c24.91,0,35.61,11.58,35.61,35.18v12.02c0,15.73-5.03,25.78-15.73,30.81v0.44c12.02,5.03,15.95,16.39,15.95,32.34
			v23.6c0,7.43,0.22,12.89,2.62,18.57H409.16z M382.94,604.13v46.98h9.4c8.96,0,14.42-3.93,14.42-16.17v-15.08
			c0-10.93-3.71-15.73-12.24-15.73H382.94z"/>
		<path class="st2" d="M574.23,617.46v5.46c0,15.73-4.81,25.56-15.51,30.59v0.44c12.89,5.03,17.92,16.39,17.92,32.55v12.46
			c0,23.6-12.45,36.27-36.49,36.27h-37.8V582.28h36.27C563.52,582.28,574.23,593.86,574.23,617.46z M526.38,604.13v40.42h9.4
			c8.96,0,14.42-3.93,14.42-16.17v-8.52c0-10.93-3.71-15.73-12.24-15.73H526.38z M526.38,666.4v46.98h13.77
			c8.08,0,12.45-3.71,12.45-15.08v-13.33c0-14.2-4.59-18.57-15.51-18.57H526.38z"/>
		<path class="st2" d="M644.69,618.99c0-24.47,12.89-38.45,36.49-38.45s36.49,13.98,36.49,38.45v79.53
			c0,24.47-12.89,38.45-36.49,38.45s-36.49-13.98-36.49-38.45V618.99z M668.73,700.05c0,10.92,4.81,15.08,12.45,15.08
			s12.45-4.15,12.45-15.08v-82.59c0-10.93-4.81-15.08-12.45-15.08s-12.45,4.15-12.45,15.08V700.05z"/>
		<path class="st2" d="M784.84,618.99c0-24.47,12.89-38.45,36.49-38.45c23.6,0,36.49,13.98,36.49,38.45v79.53
			c0,24.47-12.89,38.45-36.49,38.45c-23.6,0-36.49-13.98-36.49-38.45V618.99z M808.87,700.05c0,10.92,4.81,15.08,12.45,15.08
			c7.65,0,12.45-4.15,12.45-15.08v-82.59c0-10.93-4.81-15.08-12.45-15.08c-7.65,0-12.45,4.15-12.45,15.08V700.05z"/>
		<path class="st2" d="M961.27,580.53c23.38,0,35.4,13.98,35.4,38.45v4.81h-22.72v-6.34c0-10.93-4.37-15.08-12.02-15.08
			c-7.65,0-12.02,4.15-12.02,15.08c0,11.14,4.81,19.44,20.54,33.21c20.1,17.7,26.44,30.37,26.44,47.85
			c0,24.47-12.23,38.45-35.83,38.45c-23.6,0-35.83-13.98-35.83-38.45v-9.4h22.72v10.93c0,10.92,4.81,14.86,12.46,14.86
			c7.65,0,12.45-3.93,12.45-14.86c0-11.14-4.81-19.45-20.54-33.21c-20.1-17.7-26.44-30.37-26.44-47.85
			C925.88,594.52,937.89,580.53,961.27,580.53z"/>
		<path class="st2" d="M1059.27,582.28h74.29v21.85h-25.13v131.1h-24.03v-131.1h-25.13V582.28z"/>
	</g>
</g>
</svg>
